{"title":"Night Of The Living Dead 1968 {720p} {Dolby Prologic II Enhanced","uid":9238504,"size":810644756,"categoryP":"video","categoryS":"movies","magnet":"?xt=urn:btih:e9284f3f25581338b273d800895811eb2fc90a09&amp;dn=Night+Of+The+Living+Dead+1968+%7B720p%7D+%7BDolby+Prologic+II+Enhanced&amp;tr=udp%3A%2F%2Ftracker.openbittorrent.com%3A80&amp;tr=udp%3A%2F%2Fopen.demonii.com%3A1337&amp;tr=udp%3A%2F%2Ftracker.coppersurfer.tk%3A6969&amp;tr=udp%3A%2F%2Fexodus.desync.com%3A6969","seeders":2,"leechers":2,"uploader":"PCTECHPAUL","files":8,"time":1385226392,"description":"**************************************************************\nNight Of The Living Dead 1968\n**************************************************************\nEncoded By PcTechPaul\n-------------------------------------------------------------------------------\nGeneral Information\n-------------------------------------------------------------------------------\nType.................: Movie\nPlatform.............: Video\nMore Info............:\n\nVideo Format.........: mp4\nVideo Bitrate........: 972\nResolution : 960 * 720\nColor................: 8 bit\nFPS..................: 23.974\nSource...............: BluRay\nOriginal Format......: NTSC\nGenre................: Horror\nIMDb Rating..........: 7.9\nMovie Information....: http://www.imdb.com/title/tt0063350/\n\n-------------------------------------------------------------------------------\nRelease Notes\n-------------------------------------------------------------------------------\nComplete name : M:Night Of The Living Dead 1968ightofthelivingdead1968.mp4\nFormat : MPEG-4\nFormat profile : Base Media / Version 2\nCodec ID : mp42\nFile size : 771 MiB\nDuration : 1h 35mn\nOverall bit rate mode : Variable\nOverall bit rate : 1124 Kbps\n\n\nVideo\nID : 1\nFormat : AVC\nFormat/Info : Advanced Video Codec\nFormat profile : &lt;a class=&quot;__cf_email__&quot; href=&quot;/cdn-cgi/l/email-protection&quot; data-cfemail=&quot;5f173638371f136c716e&quot;&gt;[email&amp;#160;protected]&lt;/a&gt;&lt;script cf-hash='f9e31' type=&quot;text/javascript&quot;&gt;\n/* &lt;![CDATA[ */!function(){try{var t=&quot;currentScript&quot;in document?document.currentScript:function(){for(var t=document.getElementsByTagName(&quot;script&quot;),e=t.length;e--;)if(t[e].getAttribute(&quot;cf-hash&quot;))return t[e]}();if(t&amp;&amp;t.previousSibling){var e,r,n,i,c=t.previousSibling,a=c.getAttribute(&quot;data-cfemail&quot;);if(a){for(e=&quot;&quot;,r=parseInt(a.substr(0,2),16),n=2;a.length-n;n+=2)i=parseInt(a.substr(n,2),16)^r,e+=String.fromCharCode(i);e=document.createTextNode(e),c.parentNode.replaceChild(e,c)}}}catch(u){}}();/* ]]&gt; */&lt;/script&gt;\nFormat settings, CABAC : Yes\nFormat settings, ReFrames : 6 frames\nCodec ID : avc1\nCodec ID/Info : Advanced Video Coding\nDuration : 1h 35mn\nBit rate mode : Variable\nBit rate : 972 Kbps\nWidth : 960 pixels\nHeight : 720 pixels\nDisplay aspect ratio : 4:3\nFrame rate mode : Variable\nFrame rate : 23.976 fps\nMinimum frame rate : 23.974 fps\nMaximum frame rate : 23.981 fps\nColor space : YUV\nChroma subsampling : 4:2:0\nBit depth : 8 bits\nScan type : Progressive\nBits/(Pixel*Frame) : 0.059\nStream size : 667 MiB (87%)\nWriting library : x264 core 130 r2273 b3065e6\nEncoding settings : cabac=1 // deblock=1:0:0 / analyse=0x3:0x113 / me=hex / subme=7 / psy=1 / psy_rd=1.20:0.02 // me_range=16 / chroma_me=1 / trellis=1 / 8x8dct=1 / cqm=0 / deadzone=21,11 / fast_pskip=1 / chroma_qp_offset=-3 / threads=12 / lookahead_threads=2 / sliced_threads=0 / nr=0 / decimate=1 / interlaced=0 / bluray_compat=0 / constrained_intra=0 / bframes=6 / b_pyramid=2 / b_adapt=1 / b_bias=0 / direct=1 / weightb=1 / open_gop=0 / weightp=2 / keyint=240 / keyint_min=24 / scenecut=40 / intra_refresh=0 / rc_lookahead=40 / rc=2pass / mbtree=1 / bitrate=972 / ratetol=1.0 / qcomp=0.60 / qpmin=0 / qpmax=69 / qpstep=4 / cplxblur=20.0 / qblur=0.5 / ip_ratio=1.40 / aq=1:1.00\nEncoded date : UTC 2013-11-21 19:41:08\nTagged date : UTC 2013-11-21 20:18:48\n\nColor primaries : BT.709\nTransfer characteristics : BT.709\nMatrix coefficients : BT.709\n\n\nAudio\nID : 2\nFormat : AAC\nFormat/Info : Advanced Audio Codec\nFormat profile : LC\nCodec ID : 40\nDuration : 1h 35mn\nBit rate mode : Variable\nBit rate : 144 Kbps\nMaximum bit rate : 185 Kbps\nChannel(s) : 2 channels\nChannel positions : Front: L R\nSampling rate : 48.0 KHz\nCompression mode : Lossy\nDelay relative to video : 83ms\nStream size : 100 MiB (13%) ","torrent":{"xt":"urn:btih:e9284f3f25581338b273d800895811eb2fc90a09","amp;dn":"Night+Of+The+Living+Dead+1968+%7B720p%7D+%7BDolby+Prologic+II+Enhanced","amp;tr":["udp%3A%2F%2Ftracker.openbittorrent.com%3A80","udp%3A%2F%2Fopen.demonii.com%3A1337","udp%3A%2F%2Ftracker.coppersurfer.tk%3A6969","udp%3A%2F%2Fexodus.desync.com%3A6969"],"infoHash":"e9284f3f25581338b273d800895811eb2fc90a09","infoHashBuffer":{"type":"Buffer","data":[233,40,79,63,37,88,19,56,178,115,216,0,137,88,17,235,47,201,10,9]},"announce":[],"urlList":[]}}